<svg width="32" height="32" viewBox="0 0 32.001 32" fill="none" xmlns="http://www.w3.org/2000/svg">
<path d="M16.001 0C24.8373 0.000263881 32.001 7.16361 32.001 16C32.001 24.8364 24.8373 31.9997 16.001 32C7.16442 32 0 24.8366 0 16C0 7.16344 7.16442 0 16.001 0ZM8 18C8.78793 18 9.56892 18.1555 10.2969 18.457C11.0246 18.7586 11.6861 19.2008 12.2432 19.7578C12.8002 20.3149 13.2425 20.9763 13.5439 21.7041C13.8454 22.432 14 23.2122 14 24H16C16 22.9494 15.7936 21.9091 15.3916 20.9385C14.9896 19.9679 14.4001 19.0856 13.6572 18.3428C12.9144 17.6 12.0321 17.0114 11.0615 16.6094C10.0909 16.2074 9.05054 16 8 16V18ZM24 16C22.9495 16 21.909 16.2074 20.9385 16.6094C19.9682 17.0113 19.0864 17.6002 18.3438 18.3428C17.6009 19.0856 17.0114 19.9679 16.6094 20.9385C16.2073 21.9091 16 22.9494 16 24H18C18 23.2121 18.1556 22.432 18.457 21.7041C18.7585 20.9762 19.2007 20.3149 19.7578 19.7578C20.3149 19.2007 20.9762 18.7586 21.7041 18.457C22.432 18.1555 23.2122 18 24 18V16ZM14 8C14 8.78783 13.8454 9.56803 13.5439 10.2959C13.2425 11.0237 12.8002 11.6851 12.2432 12.2422C11.6861 12.7992 11.0246 13.2414 10.2969 13.543C9.56892 13.8445 8.78793 14 8 14V16C9.05054 16 10.0909 15.7926 11.0615 15.3906C12.0321 14.9886 12.9144 14.4 13.6572 13.6572C14.4001 12.9144 14.9896 12.0321 15.3916 11.0615C15.7936 10.0909 16 9.05056 16 8H14ZM16 8C16 9.05057 16.2073 10.0909 16.6094 11.0615C17.0114 12.0321 17.6009 12.9144 18.3438 13.6572C19.0864 14.3998 19.9682 14.9887 20.9385 15.3906C21.909 15.7926 22.9495 16 24 16V14C23.2122 14 22.432 13.8445 21.7041 13.543C20.9762 13.2414 20.3149 12.7993 19.7578 12.2422C19.2007 11.6851 18.7585 11.0238 18.457 10.2959C18.1556 9.568 18 8.78787 18 8H16Z" fill="currentColor"/>
</svg>
