<svg width="32" height="32" viewBox="0 0 32.2288 32.1074" fill="none" xmlns="http://www.w3.org/2000/svg">
<path d="M16 0.107422C24.8363 0.107686 32 7.27103 32 16.1074C32 24.9438 24.8363 32.1072 16 32.1074C7.16344 32.1074 0 24.944 0 16.1074C0 7.27087 7.16344 0.107422 16 0.107422ZM7.99902 18.1074C8.78695 18.1074 9.56794 18.2629 10.2959 18.5645C11.0237 18.866 11.6852 19.3082 12.2422 19.8652C12.7992 20.4223 13.2415 21.0837 13.543 21.8115C13.8444 22.5394 13.999 23.3196 13.999 24.1074H15.999C15.999 23.0569 15.7927 22.0165 15.3906 21.0459C14.9886 20.0753 14.3991 19.1931 13.6562 18.4502C12.9134 17.7074 12.0311 17.1188 11.0605 16.7168C10.09 16.3148 9.04957 16.1074 7.99902 16.1074V18.1074ZM23.999 16.1074C22.9486 16.1075 21.908 16.3148 20.9375 16.7168C19.9672 17.1188 19.0855 17.7076 18.3428 18.4502C17.5999 19.193 17.0104 20.0753 16.6084 21.0459C16.2064 22.0165 15.999 23.0568 15.999 24.1074H17.999C17.999 23.3196 18.1546 22.5394 18.4561 21.8115C18.7576 21.0836 19.1998 20.4224 19.7568 19.8652C20.3139 19.3081 20.9753 18.866 21.7031 18.5645C22.431 18.263 23.2112 18.1075 23.999 18.1074V16.1074ZM13.999 8.10742C13.999 8.89525 13.8444 9.67545 13.543 10.4033C13.2415 11.1311 12.7992 11.7925 12.2422 12.3496C11.6852 12.9066 11.0237 13.3489 10.2959 13.6504C9.56794 13.9519 8.78695 14.1074 7.99902 14.1074V16.1074C9.04957 16.1074 10.09 15.9001 11.0605 15.498C12.0311 15.096 12.9134 14.5074 13.6562 13.7646C14.3991 13.0218 14.9886 12.1396 15.3906 11.1689C15.7927 10.1984 15.999 9.15798 15.999 8.10742H13.999ZM15.999 8.10742C15.999 9.158 16.2064 10.1983 16.6084 11.1689C17.0104 12.1395 17.5999 13.0218 18.3428 13.7646C19.0855 14.5072 19.9672 15.0961 20.9375 15.498C21.908 15.9 22.9486 16.1074 23.999 16.1074V14.1074C23.2112 14.1074 22.431 13.9519 21.7031 13.6504C20.9753 13.3489 20.3139 12.9067 19.7568 12.3496C19.1998 11.7925 18.7576 11.1312 18.4561 10.4033C18.1546 9.67542 17.999 8.89529 17.999 8.10742H15.999Z" fill="currentColor"/>
</svg>
