<svg width="24" height="24" viewBox="0 0 24 24" fill="none" xmlns="http://www.w3.org/2000/svg">
<path d="M19.5001 2C20.0947 1.99965 20.699 2.15061 21.2501 2.46875C22.9242 3.43525 23.4979 5.57598 22.5314 7.25L15.0314 20.2402C14.0649 21.9142 11.9242 22.488 10.2501 21.5215C9.41392 21.0386 8.85195 20.2606 8.62029 19.3975L6.85369 12.8037L2.02557 7.97461C0.658614 6.60765 0.658973 4.39208 2.02557 3.02539C2.65779 2.39311 3.53409 2.00011 4.50018 2H19.5001ZM4.50018 4C4.08579 4.00011 3.71206 4.167 3.43963 4.43945C2.85378 5.0254 2.85402 5.97494 3.43963 6.56055L7.91424 11.0352L14.8908 7.00684C15.369 6.7308 15.9808 6.89487 16.257 7.37305C16.5329 7.85124 16.3689 8.46312 15.8908 8.73926L8.91424 12.7676L10.5519 18.8789C10.6517 19.2509 10.8915 19.5819 11.2501 19.7891C11.9675 20.2032 12.8847 19.9575 13.299 19.2402L20.799 6.25C21.2132 5.53256 20.9676 4.61539 20.2501 4.20117C20.013 4.06427 19.7557 3.99982 19.5011 4H4.50018Z" fill="currentColor"/>
</svg>
