<svg width="16" height="16" viewBox="0 0 16 16" fill="none" xmlns="http://www.w3.org/2000/svg">
<path fill-rule="evenodd" clip-rule="evenodd" d="M3.47463 1.9411C5.97404 -0.647059 10.0261 -0.647007 12.5256 1.9411C15.0249 4.52929 15.025 8.72526 12.5256 11.3135L7.99977 16L3.47463 11.3135C0.975278 8.72521 0.975227 4.52926 3.47463 1.9411ZM11.52 2.98239C9.57606 0.96944 6.42419 0.969387 4.48022 2.98239C2.53624 4.9954 2.53629 8.25918 4.48022 10.2722L6.5775 12.4439V10.3088H9.42203V12.4439L11.52 10.2722C13.464 8.25924 13.4639 4.99544 11.52 2.98239Z" fill="currentColor"/>
<path d="M7.99998 0.736064C11.142 0.736064 13.689 3.53843 13.689 6.99533C13.689 10.4522 11.142 13.2546 7.99998 13.2546C4.858 13.2546 2.31092 10.4522 2.31092 6.99533C2.31092 3.53843 4.858 0.736064 7.99998 0.736064Z" fill="currentColor"/>
</svg>
